<svg width="28" height="29" viewBox="0 0 28 29" fill="none" xmlns="http://www.w3.org/2000/svg">
  <g clip-path="url(#clip0)" filter="url(#filter0_dd)">
  <path d="M21.9 9.75275H13.4V10.9569H21.9L19.8 13.0641L20.7 13.9672L23.8 10.8565C23.8974 10.7263 23.95 10.5678 23.95 10.405C23.95 10.2421 23.8974 10.0837 23.8 9.95344L20.7 6.84277L19.8 7.74587L21.9 9.75275Z" fill="black"/>
  <path d="M12.1 19.7872V13.5659C12.0885 13.41 12.0215 13.2635 11.9114 13.153C11.8013 13.0425 11.6553 12.9754 11.5 12.9638H7.10001C7.10516 13.2815 7.23325 13.5848 7.45718 13.8095C7.68112 14.0342 7.98336 14.1627 8.30001 14.1679H10.8V19.1851H7.10001C6.86326 19.2 6.62591 19.1676 6.40176 19.0896C6.17762 19.0117 5.97115 18.8898 5.79436 18.7311C5.61757 18.5723 5.47399 18.3799 5.37196 18.165C5.26992 17.9501 5.21148 17.717 5.20001 17.4793V3.43111C5.19181 2.96681 5.36516 2.51774 5.68292 2.18013C6.00069 1.84252 6.43758 1.64322 6.90001 1.62492H10.8V6.64212H8.40001C8.08336 6.64729 7.78112 6.77581 7.55718 7.00052C7.33325 7.22523 7.20516 7.52851 7.20001 7.84625H11.6C11.7553 7.83466 11.9013 7.76751 12.0114 7.65701C12.1215 7.54651 12.1885 7.40002 12.2 7.24418V0.922517C12.1523 0.76584 12.0612 0.626022 11.9372 0.519407C11.8133 0.412792 11.6616 0.343785 11.5 0.320453H7.10001C6.70599 0.307054 6.31321 0.371716 5.94411 0.510744C5.57501 0.649771 5.23684 0.860436 4.94893 1.13069C4.66103 1.40095 4.42903 1.7255 4.26621 2.08579C4.10338 2.44608 4.01293 2.83504 4.00001 3.23043V17.1782C3.97104 17.5773 4.02465 17.978 4.15749 18.3552C4.29032 18.7324 4.49951 19.078 4.77189 19.3701C5.04426 19.6623 5.37394 19.8947 5.74019 20.0529C6.10643 20.211 6.50132 20.2913 6.90001 20.2889H11.5C11.5735 20.304 11.6494 20.3022 11.7222 20.2839C11.7949 20.2655 11.8626 20.2309 11.9202 20.1828C11.9778 20.1346 12.0239 20.074 12.055 20.0055C12.0862 19.9371 12.1015 19.8624 12.1 19.7872Z" fill="black"/>
  </g>
  <defs>
  <filter id="filter0_dd" x="0" y="0.320435" width="28" height="28.0688" filterUnits="userSpaceOnUse" color-interpolation-filters="sRGB">
  <feFlood flood-opacity="0" result="BackgroundImageFix"/>
  <feColorMatrix in="SourceAlpha" type="matrix" values="0 0 0 0 0 0 0 0 0 0 0 0 0 0 0 0 0 0 127 0"/>
  <feOffset dy="4"/>
  <feGaussianBlur stdDeviation="2"/>
  <feColorMatrix type="matrix" values="0 0 0 0 0 0 0 0 0 0 0 0 0 0 0 0 0 0 0.25 0"/>
  <feBlend mode="normal" in2="BackgroundImageFix" result="effect1_dropShadow"/>
  <feColorMatrix in="SourceAlpha" type="matrix" values="0 0 0 0 0 0 0 0 0 0 0 0 0 0 0 0 0 0 127 0"/>
  <feOffset dy="4"/>
  <feGaussianBlur stdDeviation="2"/>
  <feColorMatrix type="matrix" values="0 0 0 0 0 0 0 0 0 0 0 0 0 0 0 0 0 0 0.25 0"/>
  <feBlend mode="normal" in2="effect1_dropShadow" result="effect2_dropShadow"/>
  <feBlend mode="normal" in="SourceGraphic" in2="effect2_dropShadow" result="shape"/>
  </filter>
  <clipPath id="clip0">
  <rect width="20" height="20.0688" fill="white" transform="translate(4 0.320435)"/>
  </clipPath>
  </defs>
</svg>
